<svg width="86" height="56" viewBox="0 0 86 56" fill="none" xmlns="http://www.w3.org/2000/svg">
<path d="M41.9416 15.709C41.9829 16.9874 35.0545 28.2874 32.58 34.7621C31.9614 36.4117 31.714 37.649 31.714 38.5975C31.714 40.9482 32.9512 41.0307 33.4873 41.0307C35.3019 41.0307 36.9928 39.2161 38.5599 37.2366C38.6012 37.1953 38.6836 37.1541 38.8074 37.1541C39.6734 37.1541 40.0446 37.7727 40.0446 38.3913C40.0446 38.8449 39.8384 39.4223 39.3847 39.9584C36.8278 43.0515 33.8173 44.9073 31.2603 44.9073C30.6417 44.9073 30.0231 44.7836 29.4458 44.5361C28.0023 43.9588 25.3629 40.742 25.3629 37.7727C25.3629 35.7106 27.5487 28.9472 29.3633 25.6067C25.198 30.5556 19.9192 36.8241 18.8469 37.6902C18.5582 37.8964 18.2696 38.0201 17.9396 38.0201C16.0426 38.0201 15.8364 36.2055 15.8364 32.4114C15.8364 29.5246 15.9601 25.8542 15.9601 23.6272C15.9601 23.3385 15.9601 23.091 15.9601 22.8436C11.4236 29.607 5.19631 41.5256 4.00033 47.093C3.91785 47.423 3.91785 47.7116 3.91785 47.9591C3.91785 48.454 4.04157 48.7427 4.04157 48.9076C4.04157 49.1138 3.83537 49.1551 3.67041 49.1551C2.55691 49.1551 0.701089 46.8044 0.701089 45.7733C0.701089 45.7321 0.701089 45.6496 0.701089 45.6084C1.81458 37.8964 14.5579 10.6776 16.9086 9.93531C17.0736 9.89407 17.2798 9.85282 17.4448 9.85282C19.0119 9.85282 20.9914 11.5024 22.0637 12.5335C22.1462 12.6159 22.1874 12.9046 22.1874 13.3583C22.1874 16.2451 20.744 26.0604 20.744 29.4421C20.744 30.1844 20.8265 30.6381 20.9502 30.6381C21.8163 30.6381 32.9924 16.1214 34.3121 15.0079C34.972 14.4718 35.5906 13.6057 36.7041 13.6057C38.6836 13.6057 41.8592 14.513 41.9416 15.709ZM51.8545 25.6892C51.1534 26.7202 50.5348 27.2976 49.7512 27.2976C48.4315 27.2976 46.9469 25.7304 46.9469 24.6994C46.9469 23.2148 49.1326 21.3589 49.9574 21.3589C51.4421 21.3589 52.6793 22.5962 52.6793 23.5034C52.6793 24.2458 52.2669 25.0293 51.8545 25.6892ZM51.9782 37.9789C51.3596 39.0099 49.2151 41.4843 47.2356 42.7215C45.5447 43.7938 43.8538 44.5774 42.2455 44.5774C41.4207 44.5774 40.6371 44.4536 39.9772 44.2062C38.905 43.835 37.2554 41.773 37.2554 39.9997C37.2554 37.3603 43.0703 29.0709 44.2662 28.4523C44.4725 28.3698 44.6787 28.3286 44.8849 28.3286C46.287 28.3286 47.9367 29.9782 47.9367 30.968C47.9367 31.5866 45.8746 34.1023 43.8126 37.484C42.9053 38.9687 42.2042 40.3708 42.2042 41.1544C42.2042 41.6493 42.5754 41.938 43.3177 41.938C44.1425 41.938 45.2973 41.1956 46.7407 40.0821C48.7202 38.5562 50.2049 35.9581 51.2771 35.9581C51.8133 35.9581 52.2257 36.4942 52.2257 37.1128C52.2257 37.4015 52.1432 37.6902 51.9782 37.9789ZM68.0082 38.1026C66.2761 40.4121 62.3583 44.7011 58.8116 44.7011C57.5331 44.7011 56.1722 44.165 55.6773 42.7628C54.8113 43.6288 53.739 44.6186 52.4193 44.6186C50.5635 44.6186 48.2953 42.0617 48.2953 39.0924C48.419 34.9271 54.3576 28.2461 58.2342 28.2461C59.224 28.2461 60.0488 29.607 60.5437 30.5556C61.5747 29.3184 61.9046 29.1946 62.2758 29.1946C63.3068 29.1946 65.5338 29.9782 65.5338 31.1742C65.5338 31.5866 64.3791 33.195 64.0491 33.6899C62.3995 35.9993 60.0488 39.9584 60.0488 41.2369C60.0488 41.608 60.3375 41.6905 60.6262 41.6905C62.317 41.6905 65.3688 37.7314 66.2349 36.7417C66.6061 36.3293 66.9772 36.1231 67.3071 36.1231C67.8845 36.1231 68.2969 36.6592 68.2969 37.2778C68.2969 37.5252 68.2144 37.8552 68.0082 38.1026ZM58.8941 32.7826C58.8528 32.4114 58.7704 31.9165 58.5229 31.9165C57.7393 31.9165 55.9248 34.226 54.8113 36.0818C53.2854 38.5562 52.708 40.2884 52.708 40.8657C52.708 41.1132 52.7905 41.1544 52.9142 41.1544C53.9865 41.1544 56.0072 38.0614 56.5021 37.0716C57.2445 35.5869 58.028 34.061 58.8941 32.7826ZM84.8399 38.1851C83.2315 40.3708 81.2107 42.3504 78.5713 42.3504C77.9114 42.3504 77.2516 42.2679 76.5505 41.9792C74.9421 43.5464 73.0038 44.9485 70.9418 44.9485C69.0035 44.9485 65.6218 42.2267 65.6218 39.4635C65.6218 33.6486 72.2203 28.7822 75.0658 28.7822C75.9731 28.7822 77.1279 29.4008 77.8702 29.937C78.3239 29.7308 78.86 29.607 79.3961 29.607C81.0457 29.607 81.7468 30.7618 81.7468 32.2052C81.7468 34.391 80.3034 37.5665 78.4476 39.8759C78.5713 39.9172 78.7363 39.9172 78.86 39.9172C81.2932 39.9172 83.0253 36.1231 84.0563 36.1231C84.6337 36.1231 85.1698 36.6179 85.1698 37.2778C85.1698 37.5665 85.0461 37.8964 84.8399 38.1851ZM78.2414 33.1537C78.1589 33.1125 78.0764 33.1125 77.9939 33.1125C77.2516 33.1125 76.3855 34.8034 76.3855 35.8756C76.3855 36.2468 76.468 36.6179 76.5917 36.7829C77.499 35.422 78.3239 33.8548 78.3239 33.3187C78.3239 33.2362 78.2826 33.195 78.2414 33.1537ZM73.9524 39.9584C73.3337 39.0924 73.0863 38.1026 73.0863 37.1128C73.0863 36.288 73.2513 35.5044 73.5812 34.6796C72.2203 35.3807 69.7046 38.8449 69.7046 40.577C69.7046 41.2369 70.117 41.5668 70.7768 41.5668C71.6016 41.5668 72.7976 41.0307 73.9524 39.9584Z" fill="#154354"/>
</svg>
